<?xml version="1.0" encoding="UTF-8" standalone="no"?><!-- Generator: Gravit.io --><svg xmlns="http://www.w3.org/2000/svg" xmlns:xlink="http://www.w3.org/1999/xlink" style="isolation:isolate" viewBox="0 0 193.353 299.95" width="193.353pt" height="299.95pt"><defs><clipPath id="_clipPath_IOS7W1ly31GFp73X6yzOArFPBtDcVbNn"><rect width="193.353" height="299.95"/></clipPath></defs><g clip-path="url(#_clipPath_IOS7W1ly31GFp73X6yzOArFPBtDcVbNn)"><g><path d=" M 22.742 0.005 C 13.655 -0.195 5.439 5.384 2.274 13.905 C -0.892 22.425 1.688 32.015 8.701 37.797 L 139.242 149.63 L 8.701 261.422 C 2.249 266.164 -1.005 274.118 0.275 282.022 C 1.554 289.926 7.15 296.448 14.768 298.913 C 22.386 301.378 30.742 299.37 36.409 293.713 L 185.867 165.838 C 190.617 161.785 193.353 155.854 193.353 149.609 C 193.353 143.365 190.617 137.434 185.867 133.38 L 36.409 5.38 C 32.633 2.026 27.791 0.121 22.742 0.002 L 22.742 0.005 Z " fill="rgb(255,255,255)"/></g></g></svg>