<?xml version="1.0" encoding="UTF-8" standalone="no"?><!-- Generator: Gravit.io --><svg xmlns="http://www.w3.org/2000/svg" xmlns:xlink="http://www.w3.org/1999/xlink" style="isolation:isolate" viewBox="0 0 13.875 12.938" width="13.875pt" height="12.938pt"><defs><clipPath id="_clipPath_p8Pw1lE755JP0OLcjAL7YczEmsSUQ76h"><rect width="13.875" height="12.938"/></clipPath></defs><g clip-path="url(#_clipPath_p8Pw1lE755JP0OLcjAL7YczEmsSUQ76h)"><path d=" M 13.875 3.469 L 10.408 0 L 9.701 0.707 L 11.961 2.969 L 6.938 2.969 L 6.938 3.969 L 11.961 3.969 L 9.7 6.231 L 10.407 6.938 L 13.875 3.469 Z  M 12.938 8.969 L 11.938 8.969 L 11.938 9.969 L 12.938 9.969 L 12.938 8.969 Z  M 10.938 8.969 L 9.938 8.969 L 9.938 9.969 L 10.938 9.969 L 10.938 8.969 Z  M 8.938 8.969 L 7.938 8.969 L 7.938 9.969 L 8.938 9.969 L 8.938 8.969 Z  M 6.938 8.969 L 1.915 8.969 L 4.176 6.707 L 3.469 6 L 0 9.469 L 3.47 12.938 L 4.176 12.231 L 1.915 9.969 L 6.938 9.969 L 6.938 8.969 Z  M 5.938 2.969 L 4.938 2.969 L 4.938 3.969 L 5.938 3.969 L 5.938 2.969 Z  M 3.938 2.969 L 2.938 2.969 L 2.938 3.969 L 3.938 3.969 L 3.938 2.969 Z  M 1.938 2.969 L 0.938 2.969 L 0.938 3.969 L 1.938 3.969 L 1.938 2.969 Z " fill="rgb(255,255,255)"/></g></svg>