<?xml version="1.0" encoding="UTF-8" standalone="no"?><!-- Generator: Gravit.io --><svg xmlns="http://www.w3.org/2000/svg" xmlns:xlink="http://www.w3.org/1999/xlink" style="isolation:isolate" viewBox="0 0 584 580" width="584pt" height="580pt"><defs><clipPath id="_clipPath_xpLDvcOTaR2giG3ZozhSupT2OwM6V07s"><rect width="584" height="580"/></clipPath></defs><g clip-path="url(#_clipPath_xpLDvcOTaR2giG3ZozhSupT2OwM6V07s)"><g><g><defs><filter id="Fr5kekPdVCSkO1l46dEEet4oUjgHPL0l" x="-200%" y="-200%" width="400%" height="400%" filterUnits="objectBoundingBox" color-interpolation-filters="sRGB"><feGaussianBlur xmlns="http://www.w3.org/2000/svg" in="SourceGraphic" stdDeviation="17.174436251356113"/><feOffset xmlns="http://www.w3.org/2000/svg" dx="0" dy="0" result="pf_100_offsetBlur"/><feFlood xmlns="http://www.w3.org/2000/svg" flood-color="#FF0000" flood-opacity="1"/><feComposite xmlns="http://www.w3.org/2000/svg" in2="pf_100_offsetBlur" operator="in" result="pf_100_dropShadow"/><feBlend xmlns="http://www.w3.org/2000/svg" in="SourceGraphic" in2="pf_100_dropShadow" mode="normal" result="_out_vJBOxSaNCopCWgPnJlgg5YpOF0BNrMJd"/><feGaussianBlur xmlns="http://www.w3.org/2000/svg" in="_out_vJBOxSaNCopCWgPnJlgg5YpOF0BNrMJd" stdDeviation="12.880827188517085"/><feOffset xmlns="http://www.w3.org/2000/svg" dx="0" dy="0" result="pf_101_offsetBlur"/><feFlood xmlns="http://www.w3.org/2000/svg" flood-color="#FFFFFF" flood-opacity="0.5"/><feComposite xmlns="http://www.w3.org/2000/svg" in2="pf_101_offsetBlur" operator="in" result="pf_101_dropShadow"/><feBlend xmlns="http://www.w3.org/2000/svg" in="_out_vJBOxSaNCopCWgPnJlgg5YpOF0BNrMJd" in2="pf_101_dropShadow" mode="normal" result="_out_KukmHMZsAsGYkvb7dtD5LODOTP4fGqv1"/><feMerge><feMergeNode in="_out_KukmHMZsAsGYkvb7dtD5LODOTP4fGqv1"/></feMerge></filter></defs><g filter="url(#Fr5kekPdVCSkO1l46dEEet4oUjgHPL0l)"><path d=" M 470.873 104.756 C 370.433 7.748 211.197 7.748 110.756 104.756 C 11.313 207.718 14.165 371.799 117.127 471.243 C 217.567 568.251 376.803 568.251 477.244 471.243 C 576.687 368.282 573.835 204.2 470.873 104.756 Z  M 465.062 459.061 L 464.976 458.975 C 370.463 553.403 217.297 553.333 122.869 458.819 C 28.442 364.306 28.512 211.141 123.025 116.714 C 217.539 22.287 370.705 22.357 465.132 116.869 C 510.488 162.267 535.948 223.826 535.906 287.999 C 535.91 352.159 510.427 413.692 465.062 459.061 Z " fill="rgb(255,0,0)"/></g></g></g><g filter="url(#uEIiG5wXyMmEQ5XeQTSt0pcULTb9uiIN)"><g><defs><filter id="pBEWRziumqrxxeFgj4lJVUYrVdKU5NVJ" x="-200%" y="-200%" width="400%" height="400%" filterUnits="objectBoundingBox" color-interpolation-filters="sRGB"><feGaussianBlur xmlns="http://www.w3.org/2000/svg" in="SourceGraphic" stdDeviation="12.880827188517085"/><feOffset xmlns="http://www.w3.org/2000/svg" dx="0" dy="0" result="pf_100_offsetBlur"/><feFlood xmlns="http://www.w3.org/2000/svg" flood-color="#FFFFFF" flood-opacity="0.5"/><feComposite xmlns="http://www.w3.org/2000/svg" in2="pf_100_offsetBlur" operator="in" result="pf_100_dropShadow"/><feBlend xmlns="http://www.w3.org/2000/svg" in="SourceGraphic" in2="pf_100_dropShadow" mode="normal"/></filter></defs><g filter="url(#pBEWRziumqrxxeFgj4lJVUYrVdKU5NVJ)"><path d=" M 449.576 367.781 L 401.022 319.4 C 390.003 308.354 372.115 308.333 361.069 319.352 C 361.053 319.368 361.038 319.383 361.022 319.4 L 333.203 347.218 C 331.098 349.328 327.781 349.62 325.341 347.91 C 310.115 337.269 295.862 325.299 282.749 312.142 C 271.005 300.424 260.201 287.801 250.437 274.388 C 248.667 271.978 248.924 268.637 251.041 266.526 L 279.552 238.016 C 290.559 226.987 290.559 209.13 279.552 198.101 L 230.998 149.548 C 219.81 138.851 202.186 138.851 190.998 149.548 L 175.62 164.926 C 152.395 187.889 144.104 221.986 154.193 253.048 C 161.722 275.775 172.364 297.348 185.814 317.153 C 197.923 335.31 211.814 352.212 227.283 367.608 C 244.101 384.546 262.73 399.582 282.835 412.447 C 304.937 426.869 329.204 437.661 354.715 444.413 C 361.274 446.03 368.004 446.841 374.758 446.831 C 397.914 446.69 420.067 437.369 436.358 420.913 L 449.577 407.694 C 460.583 396.667 460.583 378.81 449.576 367.781 Z  M 437.341 395.912 C 437.33 395.923 437.319 395.935 437.307 395.946 L 437.393 395.687 L 424.175 408.905 C 407.191 426.104 382.456 433.18 358.946 427.567 C 335.26 421.227 312.743 411.135 292.25 397.674 C 273.21 385.506 255.565 371.281 239.635 355.254 C 224.978 340.704 211.81 324.728 200.325 307.564 C 187.763 289.095 177.82 268.976 170.778 247.779 C 162.706 222.877 169.395 195.552 188.057 177.194 L 203.435 161.816 C 207.711 157.522 214.658 157.506 218.952 161.782 C 218.963 161.793 218.975 161.804 218.986 161.816 L 267.54 210.37 C 271.835 214.645 271.85 221.593 267.574 225.887 C 267.563 225.898 267.552 225.909 267.54 225.921 L 239.03 254.431 C 230.849 262.523 229.821 275.381 236.611 284.67 C 246.923 298.822 258.334 312.138 270.737 324.498 C 284.566 338.387 299.6 351.021 315.662 362.253 C 324.943 368.727 337.526 367.635 345.555 359.661 L 373.114 331.669 C 377.39 327.375 384.337 327.359 388.631 331.635 C 388.642 331.646 388.653 331.657 388.665 331.669 L 437.306 380.396 C 441.602 384.671 441.617 391.617 437.341 395.912 Z " fill="rgb(255,0,0)"/></g></g></g><defs><filter id="uEIiG5wXyMmEQ5XeQTSt0pcULTb9uiIN" x="-200%" y="-200%" width="400%" height="400%" filterUnits="objectBoundingBox" color-interpolation-filters="sRGB"><feGaussianBlur xmlns="http://www.w3.org/2000/svg" in="SourceGraphic" stdDeviation="6.440413594258542"/><feOffset xmlns="http://www.w3.org/2000/svg" dx="0" dy="0" result="pf_100_offsetBlur"/><feFlood xmlns="http://www.w3.org/2000/svg" flood-color="#FF0000" flood-opacity="1"/><feComposite xmlns="http://www.w3.org/2000/svg" in2="pf_100_offsetBlur" operator="in" result="pf_100_dropShadow"/><feBlend xmlns="http://www.w3.org/2000/svg" in="SourceGraphic" in2="pf_100_dropShadow" mode="normal"/></filter></defs></g></svg>