<svg xmlns="http://www.w3.org/2000/svg" version="1.1" xmlns:xlink="http://www.w3.org/1999/xlink" xmlns:svgjs="http://svgjs.com/svgjs" width="512" height="512" x="0" y="0" viewBox="0 0 128 128" style="enable-background:new 0 0 512 512" xml:space="preserve" class=""><g><path xmlns="http://www.w3.org/2000/svg" d="m123.81 72.58a10.55 10.55 0 0 0 -.14-5.47c-1.34-4.24-5.78-8.36-11.87-11-8-3.54-22.38-3.72-31.13-4-2.36-1.14-14.53-7-16.4-7.81-7.27-3.3-17.67-2.52-25.64-1.15-4.09.69-24.49 4.78-29.58 6.56-4.55 1.6-5 3.41-6.59 7.61-1.33 3.77-2.29 6.49-.46 13.1 2.29 8.18 6 8.58 12.44 8.58h.12a11.15 11.15 0 0 0 19.65 1h58.41a11.15 11.15 0 0 0 19.11 0h7.71c2.29 0 5-2.2 5-4.38a11.1 11.1 0 0 0 -.63-3.04zm-99.16 8.82a7.18 7.18 0 1 1 7.18-7.18 7.19 7.19 0 0 1 -7.18 7.18zm77.53 0a7.18 7.18 0 1 1 7.18-7.18 7.19 7.19 0 0 1 -7.18 7.18zm17.26-5.4h-6.24a11.17 11.17 0 1 0 -22 0h-55.52a11.17 11.17 0 1 0 -22.17-1c-5 0-6.21-.5-7.64-5.65-1.5-5.4-.84-7.28.37-10.7s1.18-4.12 4.13-5.16c4.68-1.64 24.59-5.66 28.93-6.4 7-1.19 16.86-2.08 23.34.8 2 .88 16.53 7.87 16.68 7.94a2 2 0 0 0 .8.2c8.66.27 22.91.55 30.07 3.7 4.9 2.16 8.7 5.53 9.67 8.59.7 2.21-.41 3.82 0 5.22a13.11 13.11 0 0 1 .5 1.84 1.94 1.94 0 0 1 -.92.62z" fill="#ffffff" data-original="#000000" class=""></path></g></svg>