<svg xmlns="http://www.w3.org/2000/svg" version="1.1" xmlns:xlink="http://www.w3.org/1999/xlink" xmlns:svgjs="http://svgjs.com/svgjs" width="512" height="512" x="0" y="0" viewBox="0 0 74 74" style="enable-background:new 0 0 512 512" xml:space="preserve"><g><path xmlns="http://www.w3.org/2000/svg" d="m56 72h-53a1 1 0 0 1 -1-1v-68a1 1 0 0 1 1-1h40v2h-39v66h51v-24.92h2v25.92a1 1 0 0 1 -1 1z" fill="#ffffff" data-original="#000000"></path><path xmlns="http://www.w3.org/2000/svg" d="m55 16h2v14.92h-2z" fill="#ffffff" data-original="#000000"></path><path xmlns="http://www.w3.org/2000/svg" d="m56 17h-13a1 1 0 0 1 -1-1v-13a1 1 0 0 1 .62-.92 1 1 0 0 1 1.09.21l13 13a1 1 0 0 1 .21 1.09 1 1 0 0 1 -.92.62zm-12-2h9.59l-9.59-9.59z" fill="#ffffff" data-original="#000000"></path><path xmlns="http://www.w3.org/2000/svg" d="m32.15 63a1 1 0 0 1 -.7-.29 1 1 0 0 1 -.27-1l2.74-10a1.13 1.13 0 0 1 .26-.45l27.58-27.5a6 6 0 1 1 8.48 8.48l-27.57 27.58a1 1 0 0 1 -.43.25l-9.81 2.93a.9.9 0 0 1 -.28 0zm3.63-10.47-2.19 8 7.84-2.33 27.4-27.4a4 4 0 0 0 0-5.66 4.1 4.1 0 0 0 -5.66 0z" fill="#ffffff" data-original="#000000"></path><path xmlns="http://www.w3.org/2000/svg" d="m41 59.24c-.8-6.11-5.9-6.24-6.11-6.24v-2c.11 0 7.11.12 8.11 8z" fill="#ffffff" data-original="#000000"></path><path xmlns="http://www.w3.org/2000/svg" d="m61.46 26.54h2v10h-2z" transform="matrix(.707 -.707 .707 .707 -4 53.41)" fill="#ffffff" data-original="#000000"></path><path xmlns="http://www.w3.org/2000/svg" d="m9 8h16v2h-16z" fill="#ffffff" data-original="#000000"></path><path xmlns="http://www.w3.org/2000/svg" d="m9 16h16v2h-16z" fill="#ffffff" data-original="#000000"></path><path xmlns="http://www.w3.org/2000/svg" d="m9 24h41v2h-41z" fill="#ffffff" data-original="#000000"></path><path xmlns="http://www.w3.org/2000/svg" d="m9 32h34v2h-34z" fill="#ffffff" data-original="#000000"></path><path xmlns="http://www.w3.org/2000/svg" d="m9 40h25v2h-25z" fill="#ffffff" data-original="#000000"></path><path xmlns="http://www.w3.org/2000/svg" d="m9 48h16v2h-16z" fill="#ffffff" data-original="#000000"></path><path xmlns="http://www.w3.org/2000/svg" d="m9 56h16v2h-16z" fill="#ffffff" data-original="#000000"></path></g></svg>