<?xml version="1.0" encoding="UTF-8" standalone="no"?><!-- Generator: Gravit.io --><svg xmlns="http://www.w3.org/2000/svg" xmlns:xlink="http://www.w3.org/1999/xlink" style="isolation:isolate" viewBox="0 0 231.222 222.943" width="231.222pt" height="222.943pt"><defs><clipPath id="_clipPath_B7xbJOZzRdaVsf2KzpuNCQKBFRs3MAmz"><rect width="231.222" height="222.943"/></clipPath></defs><g clip-path="url(#_clipPath_B7xbJOZzRdaVsf2KzpuNCQKBFRs3MAmz)"><path d=" M 64.305 134.933 L 33.62 211.633 C 32.293 214.992 33.301 218.818 36.108 221.089 C 38.914 223.359 42.87 223.544 45.874 221.544 L 115.61 175.069 L 185.351 221.56 C 188.355 223.56 192.31 223.375 195.117 221.105 C 197.923 218.835 198.931 215.008 197.605 211.649 L 166.916 134.933 L 227.919 89.184 C 230.761 87.051 231.923 83.341 230.798 79.966 C 229.673 76.595 226.52 74.321 222.963 74.321 L 147.033 74.321 L 123.425 5.572 C 122.276 2.238 119.138 0 115.61 0 C 112.066 0.012 108.929 2.286 107.808 5.649 L 84.885 74.321 L 8.257 74.321 C 4.705 74.321 1.548 76.595 0.423 79.966 C -0.698 83.341 0.459 87.051 3.302 89.184 L 64.305 134.933 Z  M 90.837 90.837 C 94.393 90.837 97.55 88.563 98.675 85.188 L 115.727 33.991 L 133.332 85.188 C 134.477 88.523 137.614 90.76 141.138 90.764 L 198.189 90.764 L 151.944 125.445 C 148.956 127.687 147.84 131.655 149.231 135.122 L 172.392 193.013 L 120.195 158.215 C 117.421 156.36 113.804 156.36 111.03 158.215 L 58.829 193.013 L 81.994 135.122 C 83.345 131.675 82.232 127.752 79.276 125.522 L 33.031 90.837 L 90.837 90.837 Z " fill="rgb(255,255,255)"/></g></svg>