<?xml version="1.0" encoding="UTF-8" standalone="no"?><!-- Generator: Gravit.io --><svg xmlns="http://www.w3.org/2000/svg" xmlns:xlink="http://www.w3.org/1999/xlink" style="isolation:isolate" viewBox="0 0 46.001 45.998" width="46.001pt" height="45.998pt"><defs><clipPath id="_clipPath_Onob8Hyevn5dbIvi9QsqVyTWjF57QSpX"><rect width="46.001" height="45.998"/></clipPath></defs><g clip-path="url(#_clipPath_Onob8Hyevn5dbIvi9QsqVyTWjF57QSpX)"><path d=" M 26.621 0.002 C 26.281 0.006 25.937 0.022 25.59 0.065 C 24.898 0.155 24.14 0.389 23.558 0.971 L 0.841 23.689 C -0.28 24.823 -0.28 26.648 0.841 27.783 L 18.216 45.158 C 19.35 46.278 21.175 46.278 22.309 45.158 L 45.029 22.44 C 45.606 21.861 45.845 21.096 45.935 20.408 C 46.025 19.721 45.997 19.041 45.997 18.377 L 45.997 3.502 C 45.988 1.572 44.426 0.01 42.496 0.002 L 27.621 0.002 C 27.297 0.002 26.961 -0.002 26.621 0.002 Z  M 26.652 2.002 C 26.945 1.994 27.282 2.002 27.621 2.002 L 42.496 2.002 C 43.336 2.002 43.996 2.662 43.996 3.502 L 43.996 18.377 C 43.996 19.072 43.992 19.701 43.933 20.158 C 43.875 20.615 43.781 20.842 43.621 21.002 L 20.902 43.752 C 20.732 43.922 20.502 44.018 20.261 44.018 C 20.021 44.018 19.79 43.922 19.621 43.752 L 19.496 43.596 L 2.246 26.377 C 2.075 26.207 1.979 25.977 1.979 25.736 C 1.979 25.496 2.075 25.265 2.246 25.096 L 24.996 2.377 C 25.152 2.221 25.41 2.123 25.871 2.064 C 26.101 2.034 26.359 2.01 26.652 2.002 Z  M 36.996 5.002 C 34.796 5.002 32.996 6.802 32.996 9.002 C 32.996 11.202 34.796 13.002 36.996 13.002 C 39.196 13.002 40.996 11.202 40.996 9.002 C 40.996 6.802 39.196 5.002 36.996 5.002 Z  M 36.996 7.002 C 38.113 7.002 38.996 7.885 38.996 9.002 C 38.996 10.119 38.113 11.002 36.996 11.002 C 35.879 11.002 34.996 10.119 34.996 9.002 C 34.996 7.885 35.879 7.002 36.996 7.002 Z  M 17.868 13.192 L 17.868 23.192 L 15.868 23.192 L 15.868 25.192 L 17.868 25.192 L 17.868 27.192 L 15.868 27.192 L 15.868 29.192 L 17.868 29.192 L 17.868 33.192 L 19.868 33.192 L 19.868 29.192 L 24.868 29.192 L 24.868 27.192 L 19.868 27.192 L 19.868 25.192 L 25.868 25.192 C 29.168 25.192 31.868 22.492 31.868 19.192 C 31.868 15.892 29.168 13.192 25.868 13.192 L 17.868 13.192 Z  M 19.868 15.192 L 25.868 15.192 C 28.087 15.192 29.868 16.973 29.868 19.192 C 29.868 21.411 28.087 23.192 25.868 23.192 L 19.868 23.192 L 19.868 15.192 Z " fill-rule="evenodd" fill="rgb(255,255,255)"/></g></svg>