<?xml version="1.0" encoding="UTF-8" standalone="no"?><!-- Generator: Gravit.io --><svg xmlns="http://www.w3.org/2000/svg" xmlns:xlink="http://www.w3.org/1999/xlink" style="isolation:isolate" viewBox="0 0 49.5 47.223" width="49.5pt" height="47.223pt"><defs><clipPath id="_clipPath_O3zJWSpXLAoHTbvBUNWYxmYsqKBK237Q"><rect width="49.5" height="47.223"/></clipPath></defs><g clip-path="url(#_clipPath_O3zJWSpXLAoHTbvBUNWYxmYsqKBK237Q)"><path d=" M 24.625 0.009 C 24.26 0.052 23.948 0.292 23.812 0.634 L 17.562 16.134 L 0.906 17.29 C 0.508 17.33 0.171 17.601 0.046 17.982 C -0.074 18.361 0.043 18.779 0.344 19.04 L 13.156 29.759 L 9.094 45.978 C 8.994 46.374 9.144 46.791 9.473 47.032 C 9.804 47.27 10.246 47.286 10.593 47.072 L 24.75 38.196 L 38.906 47.072 C 39.254 47.286 39.696 47.271 40.027 47.032 C 40.355 46.79 40.507 46.372 40.407 45.978 L 36.343 29.759 L 49.155 19.04 C 49.456 18.779 49.573 18.36 49.452 17.982 C 49.329 17.601 48.991 17.329 48.592 17.29 L 31.936 16.134 L 25.686 0.634 C 25.52 0.205 25.081 -0.053 24.625 0.009 Z  M 24.75 3.728 L 30.281 17.478 C 30.426 17.838 30.77 18.083 31.156 18.103 L 45.938 19.103 L 34.562 28.634 C 34.266 28.888 34.145 29.29 34.25 29.665 L 37.875 44.072 L 25.281 36.165 C 24.957 35.962 24.544 35.962 24.219 36.165 L 11.625 44.072 L 15.25 29.664 C 15.356 29.289 15.234 28.886 14.937 28.633 L 3.563 19.103 L 18.343 18.103 C 18.73 18.083 19.074 17.837 19.219 17.478 L 24.75 3.728 Z " fill="rgb(255,0,0)"/></g></svg>