<?xml version="1.0" encoding="UTF-8" standalone="no"?><!-- Generator: Gravit.io --><svg xmlns="http://www.w3.org/2000/svg" xmlns:xlink="http://www.w3.org/1999/xlink" style="isolation:isolate" viewBox="0 0 452 452" width="452pt" height="452pt"><defs><clipPath id="_clipPath_kNVJvCgBO6E7utfpEsUN1KrBUnEi4gJJ"><rect width="452" height="452"/></clipPath></defs><g clip-path="url(#_clipPath_kNVJvCgBO6E7utfpEsUN1KrBUnEi4gJJ)"><g><path d=" M 390 452 L 62 452 C 28.209 452 0 423.791 0 390 L 0 346 L 12 346 L 12 390 C 12 417.248 34.753 440 62 440 L 390 440 C 417.253 440 440 417.253 440 390 L 440 62 C 440 34.741 417.258 12 390 12 L 338 12 L 338 0 L 390 0 C 423.791 0 452 28.209 452 62 L 452 390 C 452 423.791 423.791 452 390 452 Z  M 11.99 346.511 L 0.006 346.631 L 0.036 317.497 L 12.023 317.663 L 11.99 346.511 Z  M 12 318 L 0 318 L 0 62 C 0 28.209 28.209 0 62 0 L 338.031 0 L 338.406 12 L 62 12 C 34.747 12 12 34.746 12 62 L 12 318 Z " fill="rgb(255,255,255)"/><path d=" M 313.338 356.155 C 309.86 356.155 306.083 354.686 302.054 351.761 Q 273.854 331.29 245.679 310.79 L 241.623 307.841 C 235.447 303.351 234.968 303.371 228.809 308.459 C 217.63 317.698 207.645 325.847 198.281 333.373 C 196.146 335.09 189.646 340.315 182.781 338.218 C 175.937 336.13 173.481 328.239 172.681 325.646 Q 169.844 316.524 166.994 307.408 C 161.353 289.338 155.519 270.654 149.958 252.208 C 149.301 250.025 148.681 249.508 146.89 248.861 C 132.997 243.838 118.925 238.624 105.316 233.582 Q 98.016 230.882 90.724 228.182 C 87.16 226.866 81.776 224.875 78.159 219.809 C 77.434 218.792 77.043 217.573 77.043 216.324 C 77.043 207.641 80.467 202.624 88.491 199.537 C 182.766 163.29 267.784 130.587 353.568 97.437 C 364.968 93.028 371.075 98.605 374.186 104.061 C 374.701 104.966 374.973 105.99 374.973 107.032 C 374.973 110.298 327.136 339.932 326.653 342.254 C 325.207 349.189 322.153 353.601 317.584 355.368 C 316.23 355.892 314.79 356.159 313.338 356.155 L 313.338 356.155 Z  M 235.33 292.526 C 239.405 292.526 243.553 294.408 248.68 298.136 L 252.736 301.085 Q 280.915 321.575 309.104 342.05 C 311.568 343.839 312.862 344.103 313.238 344.14 C 313.493 343.86 314.274 342.793 314.896 339.808 C 329.642 269.053 358.877 127.753 362.63 108.371 C 361.818 107.617 360.655 107.561 357.886 108.631 C 272.093 141.783 187.069 174.486 92.786 210.731 C 90.232 211.712 89.393 212.28 89.137 214.117 C 90.889 215.347 92.825 216.292 94.872 216.917 Q 102.172 219.617 109.472 222.322 C 123.058 227.356 137.108 232.561 150.956 237.567 C 156.133 239.248 160.088 243.464 161.435 248.738 C 166.977 267.127 172.803 285.782 178.435 303.824 Q 181.285 312.947 184.127 322.074 C 185.103 325.216 185.971 326.341 186.294 326.674 C 186.755 326.574 188.13 326.123 190.759 324.01 C 200.078 316.519 210.022 308.403 221.159 299.199 C 226.574 294.739 230.91 292.526 235.33 292.526 L 235.33 292.526 Z  M 186.93 304.05 L 186.768 304.05 C 179.679 303.955 177.912 297.758 177.247 295.425 Q 174.84 286.985 172.372 278.561 C 169.537 268.819 166.605 258.745 163.879 248.769 C 162.122 242.338 162.314 233.26 173.206 226.525 C 209.851 203.861 300.452 148.144 301.629 147.518 C 302.324 147.149 303.085 146.919 303.869 146.843 C 308.597 146.39 311.491 148.916 312.634 151.434 C 314.083 155.046 313.085 159.18 310.148 161.734 C 304.475 167.079 235.295 231.451 206.48 258.067 C 202.005 262.201 199.816 266.577 199.38 272.254 C 198.88 278.776 197.88 285.254 196.899 291.51 L 196.444 294.461 C 195.306 302.358 190.68 304.05 186.933 304.05 L 186.93 304.05 Z  M 275.53 177.589 C 246.791 195.25 205.25 220.816 179.519 236.729 C 174.853 239.615 174.491 242.075 175.456 245.605 C 178.156 255.486 181.073 265.511 183.894 275.205 Q 184.994 278.99 186.094 282.774 C 186.646 278.953 187.132 275.109 187.419 271.336 C 187.995 262.818 191.921 254.875 198.338 249.244 C 216.659 232.326 251.294 200.143 275.532 177.589 L 275.53 177.589 Z " fill="rgb(255,255,255)"/></g></g></svg>