<?xml version="1.0" encoding="UTF-8" standalone="no"?><!-- Generator: Gravit.io --><svg xmlns="http://www.w3.org/2000/svg" xmlns:xlink="http://www.w3.org/1999/xlink" style="isolation:isolate" viewBox="0 0 452.006 452" width="452.006pt" height="452pt"><defs><clipPath id="_clipPath_mTqYnae6Vb6l2bMUxnGuKqu4xb1ZUB4D"><rect width="452.006" height="452"/></clipPath></defs><g clip-path="url(#_clipPath_mTqYnae6Vb6l2bMUxnGuKqu4xb1ZUB4D)"><g><path d=" M 390.006 452 L 62.006 452 C 28.215 452 0.006 423.791 0.006 390 L 0.006 346 L 12.006 346 L 12.006 390 C 12.006 417.248 34.759 440 62.006 440 L 390.006 440 C 417.259 440 440.006 417.253 440.006 390 L 440.006 62 C 440.006 34.741 417.264 12 390.006 12 L 338.006 12 L 338.006 0 L 390.006 0 C 423.797 0 452.006 28.209 452.006 62 L 452.006 390 C 452.006 423.791 423.797 452 390.006 452 Z  M 12.006 346.857 L 0.029 347.019 L 0 317.883 L 12.008 317.746 L 12.006 346.857 Z  M 12.006 318 L 0.006 318 L 0.006 62 C 0.006 28.209 28.215 0 62.006 0 L 338.115 0.014 L 338.861 11.952 L 62.006 12 C 34.753 12 12.006 34.746 12.006 62 L 12.006 318 Z " fill="rgb(255,255,255)"/><path d=" M 339.583 324.629 C 328.534 324.629 316.503 323.665 309.683 320.913 C 303.904 318.652 296.433 311.159 284.823 299.09 C 278.582 292.603 269.323 282.977 265.636 281.077 C 259.959 283.3 258.992 295.894 258.344 304.35 C 257.694 312.827 257.265 318.428 252.491 320.75 C 241.437 325.909 210.545 322.907 210.24 322.874 C 210.121 322.862 210.004 322.846 209.888 322.827 C 162.102 314.867 134.042 284.314 106.612 240.888 C 58.256 165.347 61.276 152.726 62.268 148.578 C 62.811 145.979 64.415 143.725 66.693 142.362 C 66.735 142.338 66.777 142.313 66.82 142.29 C 75.792 137.303 96.079 137.746 119.572 138.261 C 122.062 138.315 124.572 138.37 127.082 138.419 L 127.216 138.419 C 134.38 138.719 140.093 147.599 157.783 185.935 C 161.393 193.755 164.801 201.142 166.345 203.584 C 176.345 219.567 180.968 219.131 181.024 219.118 C 182.399 218.838 184.373 214.545 184.8 212.107 C 187.156 187.276 186.385 170.56 182.511 162.42 C 180.19 157.542 177.585 157.274 173.27 156.83 C 172.57 156.758 171.884 156.687 171.232 156.598 C 169.469 156.359 167.904 155.35 166.958 153.844 C 166.011 152.338 165.782 150.49 166.332 148.798 C 174.26 124.434 221.554 127.275 226.92 127.679 C 227.249 127.704 227.575 127.756 227.895 127.834 C 229.621 128.256 244.833 132.06 251.435 136.592 C 256.8 139.981 259.13 148.692 258.983 164.747 L 258.983 164.878 C 258.897 167.667 258.783 170.564 258.676 173.51 C 258.288 183.766 257.887 194.371 258.345 203.103 C 258.888 213.467 260.488 216.724 261.086 217.595 C 263.597 216.933 272.66 209.364 287.925 180.589 C 291.002 174.689 293.901 168.723 296.458 163.461 C 304.306 147.314 306.989 142.13 311.199 140.526 C 314.799 139.117 322.346 138.853 339.999 138.552 C 342.426 138.51 344.899 138.468 347.379 138.418 L 347.501 138.418 C 367.388 138.418 379.858 138.626 385.378 142.713 C 385.497 142.801 385.614 142.894 385.727 142.992 C 397.666 153.292 383.437 175.707 367.838 197.786 C 364.591 202.515 360.338 207.729 356.221 212.772 C 349.367 221.172 339.009 233.865 339.579 238.694 C 339.579 238.736 339.588 238.779 339.592 238.821 C 339.957 242.621 350.206 252.531 357.692 259.768 C 373.748 275.295 391.945 292.893 389.132 310.084 C 386.905 324.254 370.118 324.316 355.307 324.371 C 352.78 324.38 350.166 324.39 347.678 324.462 C 345.106 324.567 342.374 324.629 339.583 324.629 L 339.583 324.629 Z  M 265.734 268.915 C 271.834 268.915 278.696 275.415 293.471 290.771 C 300.576 298.156 310.307 308.271 314.116 309.762 C 319.577 311.962 333.179 313.067 347.241 312.462 C 349.962 312.383 352.654 312.373 355.256 312.362 C 364.779 312.327 376.631 312.283 377.278 308.174 C 379.078 297.144 362.592 281.198 349.343 268.385 C 337.692 257.118 328.483 248.212 327.65 240.029 C 326.532 230.162 335.981 218.581 346.919 205.176 C 351.063 200.099 354.976 195.303 357.989 190.918 C 363.658 182.892 370.639 172.659 374.738 164.118 C 378.756 155.742 378.187 152.848 377.951 152.218 C 373.965 150.418 357.539 150.418 347.559 150.418 C 345.089 150.468 342.62 150.511 340.2 150.552 C 331.551 150.699 319.951 150.897 316.22 151.568 C 314.363 154.075 310.448 162.131 307.251 168.708 C 304.659 174.041 301.721 180.087 298.551 186.176 C 294.176 194.424 287.559 206.082 280.766 215 C 273.166 224.972 266.822 229.641 260.838 229.641 C 260.731 229.641 260.623 229.641 260.515 229.641 C 257.532 229.616 254.69 228.367 252.655 226.185 C 245.517 218.772 245.655 200.339 246.689 173.063 C 246.798 170.163 246.906 167.322 246.989 164.58 C 247.109 150.865 245.164 147.188 244.749 146.561 L 244.697 146.525 C 241.275 144.117 231.348 141.073 225.536 139.617 C 216.048 138.982 192.961 139.369 182.542 146.586 C 186.391 148.096 190.399 151.072 193.349 157.271 C 198.316 167.705 199.39 185.557 196.73 213.451 C 196.72 213.557 196.707 213.662 196.692 213.767 C 196.669 213.915 194.354 228.608 183.476 230.874 C 172.198 233.224 162.503 220.074 156.19 209.98 C 154.24 206.895 150.996 199.868 146.89 190.971 C 141.43 179.139 130.29 154.999 125.548 150.396 C 123.463 150.354 121.38 150.308 119.311 150.263 C 101.411 149.872 81.266 149.431 73.867 152.23 C 73.896 155.976 77.161 172.63 116.741 234.454 C 142.432 275.128 168.406 303.691 211.685 310.965 C 221.66 312.007 238.894 312.238 245.678 310.485 C 245.978 308.724 246.203 305.756 246.378 303.441 C 247.331 291.015 248.772 272.241 264.094 269.081 C 264.634 268.974 265.183 268.918 265.734 268.915 L 265.734 268.915 Z " fill="rgb(255,255,255)"/></g></g></svg>