<?xml version="1.0" encoding="UTF-8" standalone="no"?><!-- Generator: Gravit.io --><svg xmlns="http://www.w3.org/2000/svg" xmlns:xlink="http://www.w3.org/1999/xlink" style="isolation:isolate" viewBox="0 0 452 452" width="452pt" height="452pt"><defs><clipPath id="_clipPath_RNFWkRo3XmU6KRcD2m80rLuUClzCFAOR"><rect width="452" height="452"/></clipPath></defs><g clip-path="url(#_clipPath_RNFWkRo3XmU6KRcD2m80rLuUClzCFAOR)"><path d=" M 390 452 L 62 452 C 28.209 452 0 423.791 0 390 L 0.01 345.99 L 12 346 L 12 390 C 12 417.248 34.753 440 62 440 L 390 440 C 417.253 440 440 417.253 440 390 L 440 62 C 440 34.741 417.258 12 390 12 L 338 12 L 338 0.426 L 338 0 L 390 0 C 423.791 0 452 28.209 452 62 L 452 390 C 452 423.791 423.791 452 390 452 Z  M 12.002 346.66 L 0.014 346.771 L 0 326 L 12 326 L 12.002 346.66 Z  M 12.005 326.293 L 0.004 326.264 L 0 62 C 0 28.209 28.209 0 62 0 L 338.113 0.004 L 338.181 8.62 L 338.208 12.002 L 62 12 C 34.747 12 12 34.746 12 62 L 12.005 326.293 Z " fill="rgb(255,255,255)"/><g><path d=" M 83.689 374.313 C 81.755 374.313 79.939 373.381 78.812 371.81 C 77.684 370.238 77.384 368.219 78.005 366.387 L 102.333 294.616 C 89.568 272.667 82.848 247.727 82.858 222.336 C 82.858 142.576 148.231 77.687 228.586 77.687 C 308.941 77.687 374.313 142.578 374.313 222.337 C 374.313 302.096 308.941 366.982 228.587 366.982 C 204.852 366.982 181.471 361.23 160.445 350.218 L 85.505 374.031 C 84.918 374.218 84.305 374.313 83.689 374.313 L 83.689 374.313 Z  M 228.589 89.687 C 154.851 89.687 94.861 149.193 94.861 222.336 C 94.849 246.484 101.48 270.169 114.029 290.8 C 114.951 292.317 115.155 294.164 114.586 295.846 L 93.179 359 L 159.229 338.012 C 160.792 337.516 162.491 337.681 163.929 338.47 C 183.756 349.307 205.989 354.985 228.584 354.981 C 302.32 354.981 362.31 295.476 362.31 222.336 C 362.31 149.196 302.323 89.688 228.586 89.687 L 228.589 89.687 Z  M 228.586 344.9 M 265.979 293.5 C 255.137 293.5 244.645 289.269 235.207 285.462 C 233.693 284.852 232.2 284.25 230.732 283.676 C 208.873 275.13 187.373 256.503 170.191 231.226 C 169.919 230.826 169.726 230.539 169.61 230.38 C 155.881 212.246 151.31 193.248 156.744 176.91 C 159.598 168.337 166.825 157.858 176.538 153.77 C 182.222 151.282 188.716 151.443 194.269 154.212 C 200.706 157.344 203.585 166.02 205.898 172.99 C 206.443 174.632 206.956 176.182 207.387 177.217 C 207.81 178.235 208.312 179.301 208.844 180.429 C 211.364 185.778 214.817 193.104 211.044 200.841 C 209.563 203.645 207.679 206.216 205.45 208.472 C 202.135 212.102 202.198 212.217 203.25 214.125 C 206.833 220.615 212.65 227.59 219.629 233.764 C 226.619 240.021 234.627 245.039 243.306 248.6 C 244.341 249.045 245.159 249.4 245.864 249.747 C 246.073 249.868 246.302 249.948 246.54 249.985 C 247.612 249.745 250.082 246.276 251.409 244.413 C 255.278 238.98 261.124 230.772 271.25 233.652 C 275.475 235.013 279.546 236.815 283.394 239.028 C 284.873 239.812 286.271 240.553 287.621 241.206 C 288.375 241.571 289.558 242.042 290.81 242.541 C 295.897 244.568 301.662 246.865 304.268 251.149 L 304.283 251.175 C 311.118 262.539 300.556 278.675 292.723 284.519 C 286.706 288.971 279.69 291.88 272.289 292.992 C 270.203 293.333 268.093 293.503 265.979 293.5 L 265.979 293.5 Z  M 184.975 164 C 183.672 164.017 182.385 164.297 181.193 164.823 C 175.253 167.323 170.126 174.698 168.131 180.692 C 162.531 197.52 172.658 214.518 179.196 223.152 C 179.357 223.366 179.667 223.814 180.115 224.472 C 195.949 247.766 215.476 264.819 235.099 272.491 C 236.606 273.08 238.14 273.698 239.699 274.325 C 249.973 278.469 260.591 282.756 270.339 281.146 C 275.845 280.336 281.068 278.189 285.552 274.893 C 290.679 271.07 296.052 261.155 294.067 257.465 C 292.981 256.316 288.528 254.542 286.367 253.682 C 284.91 253.102 283.534 252.553 282.395 252.002 C 280.847 251.253 279.284 250.425 277.775 249.625 C 274.66 247.827 271.375 246.341 267.967 245.189 C 266.416 244.745 264.953 246.073 261.184 251.367 C 257.621 256.367 250.984 265.68 240.529 260.489 C 240.116 260.289 239.398 259.975 238.565 259.617 C 228.717 255.545 219.626 249.84 211.676 242.743 C 206.031 237.749 198.164 229.735 192.743 219.918 C 187.466 210.359 193.174 204.108 196.585 200.372 C 198.025 198.95 199.261 197.334 200.257 195.572 C 201.447 193.131 200.171 190.172 197.988 185.539 C 197.422 184.339 196.836 183.092 196.306 181.816 C 195.706 180.374 195.124 178.616 194.506 176.763 C 193.535 173.836 190.955 166.063 189.006 164.993 C 187.757 164.356 186.377 164.017 184.975 164 L 184.975 164 Z " fill="rgb(255,255,255)"/></g></g></svg>